<svg width="35" height="35" viewBox="0 0 35 35" fill="none" xmlns="http://www.w3.org/2000/svg">
<rect width="35" height="35" rx="17.5" fill="#4276FC"/>
<path d="M8.08447 14.5198V24.5454" stroke="white" stroke-width="1.3" stroke-miterlimit="10" stroke-linecap="round" stroke-linejoin="round"/>
<path d="M13.2433 24.5454H8.08447" stroke="white" stroke-width="1.3" stroke-miterlimit="10" stroke-linecap="round" stroke-linejoin="round"/>
<path d="M13.2433 14.5198H8.08447" stroke="white" stroke-width="1.3" stroke-miterlimit="10" stroke-linecap="round" stroke-linejoin="round"/>
<path d="M13.2433 24.5454V14.5198" stroke="white" stroke-width="1.3" stroke-miterlimit="10" stroke-linecap="round" stroke-linejoin="round"/>
<path d="M22.7008 24.5454H14.9625" stroke="white" stroke-width="1.3" stroke-miterlimit="10" stroke-linecap="round" stroke-linejoin="round"/>
<path d="M26.9998 16.1907C26.9998 15.2667 26.2311 14.5198 25.2802 14.5198L26.9998 16.1907Z" fill="#4276FC"/>
<path d="M26.9998 16.1907C26.9998 15.2667 26.2311 14.5198 25.2802 14.5198" stroke="white" stroke-width="1.3" stroke-miterlimit="10" stroke-linecap="round" stroke-linejoin="round"/>
<path d="M14.9625 14.5199L17.5419 10.7603" stroke="white" stroke-width="1.3" stroke-miterlimit="10" stroke-linecap="round" stroke-linejoin="round"/>
<path d="M20.1215 9.50708H19.2617" stroke="white" stroke-width="1.3" stroke-miterlimit="10" stroke-linecap="round" stroke-linejoin="round"/>
<path d="M20.1213 14.5201L21.2683 11.1782" stroke="white" stroke-width="1.3" stroke-miterlimit="10" stroke-linecap="round" stroke-linejoin="round"/>
<path d="M25.2802 14.5198H20.1213" stroke="white" stroke-width="1.3" stroke-miterlimit="10" stroke-linecap="round" stroke-linejoin="round"/>
<path d="M14.9629 14.5198H13.2433" stroke="white" stroke-width="1.3" stroke-miterlimit="10" stroke-linecap="round" stroke-linejoin="round"/>
<path d="M14.9629 24.5454H13.2433" stroke="white" stroke-width="1.3" stroke-miterlimit="10" stroke-linecap="round" stroke-linejoin="round"/>
<path d="M17.255 11.178C17.8276 10.3425 18.3108 9.50708 19.2618 9.50708L17.255 11.178Z" fill="#4276FC"/>
<path d="M17.255 11.178C17.8276 10.3425 18.3108 9.50708 19.2618 9.50708" stroke="white" stroke-width="1.3" stroke-miterlimit="10" stroke-linecap="round" stroke-linejoin="round"/>
<path d="M21.2683 11.178C21.5899 10.2423 21.0723 9.50708 20.1213 9.50708L21.2683 11.178Z" fill="#4276FC"/>
<path d="M21.2683 11.178C21.5899 10.2423 21.0723 9.50708 20.1213 9.50708" stroke="white" stroke-width="1.3" stroke-miterlimit="10" stroke-linecap="round" stroke-linejoin="round"/>
<path d="M26.9998 16.1907C26.9998 16.1907 26.14 24.5453 22.7008 24.5453L26.9998 16.1907Z" fill="#4276FC"/>
<path d="M26.9998 16.1907C26.9998 16.1907 26.14 24.5453 22.7008 24.5453" stroke="white" stroke-width="1.3" stroke-miterlimit="10" stroke-linecap="round" stroke-linejoin="round"/>
</svg>
