<svg width="35" height="35" viewBox="0 0 35 35" fill="none" xmlns="http://www.w3.org/2000/svg">
<rect width="35" height="35" rx="17.5" fill="#F5A13E"/>
<path d="M12.5371 19.8438C12.5371 19.6445 12.5059 19.4688 12.4434 19.3164C12.3848 19.1602 12.2793 19.0195 12.127 18.8945C11.9785 18.7695 11.7715 18.6504 11.5059 18.5371C11.2441 18.4238 10.9121 18.3086 10.5098 18.1914C10.0879 18.0664 9.70703 17.9277 9.36719 17.7754C9.02734 17.6191 8.73633 17.4414 8.49414 17.2422C8.25195 17.043 8.06641 16.8145 7.9375 16.5566C7.80859 16.2988 7.74414 16.0039 7.74414 15.6719C7.74414 15.3398 7.8125 15.0332 7.94922 14.752C8.08594 14.4707 8.28125 14.2266 8.53516 14.0195C8.79297 13.8086 9.09961 13.6445 9.45508 13.5273C9.81055 13.4102 10.207 13.3516 10.6445 13.3516C11.2852 13.3516 11.8281 13.4746 12.2734 13.7207C12.7227 13.9629 13.0645 14.2812 13.2988 14.6758C13.5332 15.0664 13.6504 15.4844 13.6504 15.9297H12.5254C12.5254 15.6094 12.457 15.3262 12.3203 15.0801C12.1836 14.8301 11.9766 14.6348 11.6992 14.4941C11.4219 14.3496 11.0703 14.2773 10.6445 14.2773C10.2422 14.2773 9.91016 14.3379 9.64844 14.459C9.38672 14.5801 9.19141 14.7441 9.0625 14.9512C8.9375 15.1582 8.875 15.3945 8.875 15.6602C8.875 15.8398 8.91211 16.0039 8.98633 16.1523C9.06445 16.2969 9.18359 16.4316 9.34375 16.5566C9.50781 16.6816 9.71484 16.7969 9.96484 16.9023C10.2188 17.0078 10.5215 17.1094 10.873 17.207C11.3574 17.3438 11.7754 17.4961 12.127 17.6641C12.4785 17.832 12.7676 18.0215 12.9941 18.2324C13.2246 18.4395 13.3945 18.6758 13.5039 18.9414C13.6172 19.2031 13.6738 19.5 13.6738 19.832C13.6738 20.1797 13.6035 20.4941 13.4629 20.7754C13.3223 21.0566 13.1211 21.2969 12.8594 21.4961C12.5977 21.6953 12.2832 21.8496 11.916 21.959C11.5527 22.0645 11.1465 22.1172 10.6973 22.1172C10.3027 22.1172 9.91406 22.0625 9.53125 21.9531C9.15234 21.8438 8.80664 21.6797 8.49414 21.4609C8.18555 21.2422 7.9375 20.9727 7.75 20.6523C7.56641 20.3281 7.47461 19.9531 7.47461 19.5273H8.59961C8.59961 19.8203 8.65625 20.0723 8.76953 20.2832C8.88281 20.4902 9.03711 20.6621 9.23242 20.7988C9.43164 20.9355 9.65625 21.0371 9.90625 21.1035C10.1602 21.166 10.4238 21.1973 10.6973 21.1973C11.0918 21.1973 11.4258 21.1426 11.6992 21.0332C11.9727 20.9238 12.1797 20.7676 12.3203 20.5645C12.4648 20.3613 12.5371 20.1211 12.5371 19.8438ZM20.2952 21.0801V22H15.7776V21.0801H20.2952ZM16.0061 13.4688V22H14.8752V13.4688H16.0061ZM19.6975 17.1367V18.0566H15.7776V17.1367H19.6975ZM20.2366 13.4688V14.3945H15.7776V13.4688H20.2366ZM24.7251 13.4688V22H23.6118V13.4688H24.7251ZM27.4673 13.4688V14.3945H20.8755V13.4688H27.4673Z" fill="white"/>
</svg>
