<svg width="37" height="37" viewBox="0 0 37 37" fill="none" xmlns="http://www.w3.org/2000/svg">
<path d="M16.4838 1.82998C17.6275 0.791901 19.3725 0.7919 20.5162 1.82998L22.1424 3.30593C22.7781 3.88293 23.6306 4.15992 24.4841 4.06679L26.6672 3.82856C28.2027 3.661 29.6144 4.68669 29.9296 6.19878L30.3776 8.3487C30.5528 9.18917 31.0796 9.91433 31.8249 10.3406L33.7311 11.4311C35.0718 12.1981 35.611 13.8577 34.9772 15.2662L34.076 17.2689C33.7237 18.0518 33.7237 18.9482 34.076 19.7311L34.9772 21.7338C35.611 23.1423 35.0718 24.8019 33.7311 25.5689L31.8249 26.6594C31.0796 27.0857 30.5528 27.8108 30.3776 28.6513L29.9296 30.8012C29.6144 32.3133 28.2027 33.339 26.6672 33.1714L24.4841 32.9332C23.6306 32.8401 22.7781 33.1171 22.1424 33.6941L20.5162 35.17C19.3725 36.2081 17.6275 36.2081 16.4838 35.17L14.8576 33.6941C14.2219 33.1171 13.3694 32.8401 12.5159 32.9332L10.3328 33.1714C8.79731 33.339 7.38557 32.3133 7.07044 30.8012L6.62238 28.6513C6.44722 27.8108 5.92036 27.0857 5.17515 26.6594L3.26891 25.5689C1.92821 24.8019 1.38898 23.1423 2.02282 21.7338L2.92402 19.7311C3.27633 18.9482 3.27633 18.0518 2.92402 17.2689L2.02282 15.2662C1.38898 13.8577 1.92821 12.1981 3.26891 11.4311L5.17515 10.3406C5.92036 9.91433 6.44722 9.18917 6.62238 8.3487L7.07044 6.19878C7.38557 4.68669 8.79731 3.661 10.3328 3.82856L12.5159 4.06679C13.3694 4.15992 14.2219 3.88293 14.8576 3.30593L16.4838 1.82998Z" fill="#BB3EF5"/>
<path d="M13.5527 13.4688V22H12.416L8.12109 15.4199V22H6.99023V13.4688H8.12109L12.4336 20.0664V13.4688H13.5527ZM20.7366 21.0801V22H16.219V21.0801H20.7366ZM16.4475 13.4688V22H15.3166V13.4688H16.4475ZM20.1389 17.1367V18.0566H16.219V17.1367H20.1389ZM20.678 13.4688V14.3945H16.219V13.4688H20.678ZM24.1411 19.4219L25.8345 13.4688H26.6548L26.1802 15.7832L24.3579 22H23.5434L24.1411 19.4219ZM22.3891 13.4688L23.7368 19.3047L24.1411 22H23.3325L21.2641 13.4688H22.3891ZM28.8462 19.2988L30.1645 13.4688H31.2954L29.2329 22H28.4243L28.8462 19.2988ZM26.7778 13.4688L28.4243 19.4219L29.022 22H28.2075L26.4497 15.7832L25.9692 13.4688H26.7778Z" fill="white"/>
</svg>
