<svg width="35" height="35" viewBox="0 0 35 35" fill="none" xmlns="http://www.w3.org/2000/svg">
<g opacity="0.7">
<rect width="35" height="35" rx="17.5" fill="white"/>
</g>
<path d="M23.6837 25.9423C23.464 25.9423 23.2856 25.7625 23.2856 25.5422V19.8736H22.8114C22.6621 19.8736 22.5406 19.7515 22.5406 19.6015V12.0625C22.5406 10.374 23.9073 9 25.5878 9C25.737 9 25.8585 9.12208 25.8585 9.2721V25.5422C25.8585 25.763 25.6797 25.9423 25.4605 25.9423H23.6837ZM23.8271 25.3981H25.3161V19.8736H23.8266V25.3981H23.8271ZM25.0261 9.60817C23.8992 9.86811 23.0817 10.9002 23.0817 12.0625V19.3294H25.3161V9.54105L25.0261 9.60817Z" fill="black" stroke="black" stroke-width="0.3"/>
<path d="M10.4142 25.9148C10.1945 25.9148 10.0157 25.735 10.0157 25.5143V19.574C10.0157 19.424 10.1372 19.3019 10.2864 19.3019H11.0309V15.9994H9.39803C9.17839 15.9994 9 15.8196 9 15.5993V9.2721C9 9.12208 9.12145 9 9.27072 9C9.41998 9 9.54145 9.12208 9.54145 9.2721V13.4135H11.0309V9.2721C11.0309 9.12208 11.1524 9 11.3017 9C11.451 9 11.5724 9.12208 11.5724 9.2721V13.4135H13.0619V9.2721C13.0619 9.12208 13.1834 9 13.3327 9C13.4819 9 13.6034 9.12208 13.6034 9.2721V15.7268C13.6034 15.8768 13.4819 15.9989 13.3327 15.9989H11.5724V19.3015H12.317C12.4662 19.3015 12.5877 19.4236 12.5877 19.5736V25.5143C12.5877 25.735 12.4088 25.9148 12.1897 25.9148H10.4142ZM10.5576 25.3706H12.0471V19.8461H10.5576V25.3706ZM9.54235 15.4547H13.0628V13.9577H9.54235V15.4547Z" fill="black" stroke="black" stroke-width="0.3"/>
<path d="M17.1843 25.9422C16.9647 25.9422 16.7863 25.7624 16.7863 25.5421V19.6014C16.7863 19.4514 16.9078 19.3293 17.0571 19.3293H17.8016V15.9997L17.5923 15.9754C17.0584 15.9128 16.5949 15.729 16.2516 15.4443C15.2726 14.6311 15.3349 13.3202 15.4667 12.4048C15.5716 11.6768 15.8334 10.9645 16.2233 10.3455C16.6182 9.71936 17.1839 9.00037 18.0615 9.00037H18.0835C18.9612 9.00037 19.5268 9.71936 19.9217 10.3455C20.3122 10.9645 20.5739 11.6763 20.6784 12.4048C20.8101 13.3202 20.872 14.6311 19.8935 15.4443C19.5506 15.729 19.0871 15.9128 18.5528 15.9754L18.3435 15.9997V19.3298H19.088C19.2373 19.3298 19.3587 19.4519 19.3587 19.6019V25.5421C19.3587 25.7629 19.1799 25.9422 18.9607 25.9422H17.1843ZM17.3273 25.398H18.8168V19.8735H17.3273V25.398ZM18.0723 9.54412C17.4528 9.54412 17.0212 10.0964 16.6805 10.6361C16.3309 11.1907 16.096 11.829 16.0023 12.4818C15.8204 13.7472 16.0032 14.5311 16.5963 15.024C16.9306 15.3015 17.4309 15.4542 18.0055 15.4542C18.0257 15.4542 18.0463 15.4542 18.0669 15.4537H18.0723C18.7173 15.4537 19.2001 15.3132 19.5483 15.024C20.1414 14.5311 20.3247 13.7472 20.1423 12.4818C20.0486 11.829 19.8137 11.1911 19.4641 10.6361C18.9813 9.87072 18.5681 9.54366 18.0826 9.54366L18.0723 9.54412Z" fill="black" stroke="black" stroke-width="0.3"/>
</svg>
