<svg width="27" height="27" viewBox="0 0 27 27" fill="none" xmlns="http://www.w3.org/2000/svg">
<path d="M22.8982 26.2663C22.5706 26.2663 22.3046 25.9982 22.3046 25.6697V17.216H21.5974C21.3748 17.216 21.1936 17.034 21.1936 16.8102V5.56712C21.1936 3.04909 23.2318 1 25.7378 1C25.9604 1 26.1416 1.18207 26.1416 1.40579V25.6697C26.1416 25.9989 25.8749 26.2663 25.548 26.2663H22.8982ZM23.1121 25.4547H25.3327V17.216H23.1114V25.4547H23.1121ZM24.9002 1.90697C23.2197 2.29462 22.0004 3.83379 22.0004 5.56712V16.4045H25.3327V1.80687L24.9002 1.90697Z" fill="white" stroke="white" stroke-width="0.4"/>
<path d="M3.109 26.2253C2.78145 26.2253 2.51472 25.9572 2.51472 25.628V16.7693C2.51472 16.5455 2.69588 16.3635 2.91848 16.3635H4.02879V11.4383H1.59359C1.26604 11.4383 1 11.1702 1 10.8417V1.40579C1 1.18207 1.18112 1 1.40372 1C1.62632 1 1.80748 1.18207 1.80748 1.40579V7.58194H4.02879V1.40579C4.02879 1.18207 4.20995 1 4.43255 1C4.65515 1 4.8363 1.18207 4.8363 1.40579V7.58194H7.05761V1.40579C7.05761 1.18207 7.23877 1 7.46137 1C7.68397 1 7.86513 1.18207 7.86513 1.40579V11.0318C7.86513 11.2555 7.68397 11.4376 7.46137 11.4376H4.8363V16.3628H5.94665C6.16925 16.3628 6.35037 16.5449 6.35037 16.7686V25.628C6.35037 25.9572 6.08366 26.2253 5.75678 26.2253H3.109ZM3.32292 25.4137H5.54423V17.175H3.32292V25.4137ZM1.80882 10.626H7.05895V8.39352H1.80882V10.626Z" fill="white" stroke="white" stroke-width="0.4"/>
<path d="M13.2056 26.2661C12.878 26.2661 12.612 25.998 12.612 25.6695V16.8101C12.612 16.5863 12.7931 16.4043 13.0157 16.4043H14.126V11.4388L13.8139 11.4025C13.0177 11.3091 12.3265 11.035 11.8145 10.6104C10.3545 9.39773 10.4474 7.44269 10.644 6.07753C10.8004 4.99185 11.1908 3.92968 11.7724 3.00658C12.3613 2.07273 13.2049 1.00049 14.5137 1.00049H14.5465C15.8554 1.00049 16.6989 2.07273 17.2879 3.00658C17.8701 3.92968 18.2605 4.99118 18.4162 6.07753C18.6128 7.44269 18.705 9.39773 17.2458 10.6104C16.7344 11.035 16.0432 11.3091 15.2464 11.4025L14.9342 11.4388V16.4049H16.0445C16.2671 16.4049 16.4483 16.587 16.4483 16.8107V25.6695C16.4483 25.9987 16.1816 26.2661 15.8547 26.2661H13.2056ZM13.4188 25.4545H15.6401V17.2158H13.4188V25.4545ZM14.5298 1.81139C13.606 1.81139 12.9622 2.63506 12.4542 3.43991C11.9328 4.26694 11.5825 5.21893 11.4428 6.19241C11.1714 8.07959 11.4441 9.24858 12.3285 9.98356C12.8272 10.3974 13.5732 10.6252 14.4302 10.6252C14.4603 10.6252 14.491 10.6252 14.5218 10.6245H14.5298C15.4917 10.6245 16.2116 10.4149 16.731 9.98356C17.6154 9.24858 17.8888 8.07959 17.6167 6.19241C17.477 5.21893 17.1268 4.26761 16.6054 3.43991C15.8854 2.29847 15.2691 1.81072 14.5452 1.81072L14.5298 1.81139Z" fill="white" stroke="white" stroke-width="0.4"/>
</svg>
