<svg width="25" height="14" viewBox="0 0 25 14" fill="none" xmlns="http://www.w3.org/2000/svg">
<path d="M8.05935 5.45456C9.06352 4.45039 9.06352 2.82231 8.05935 1.81815C7.05518 0.813981 5.42711 0.813981 4.42294 1.81815C3.41877 2.82231 3.41877 4.45039 4.42294 5.45456C5.42711 6.45872 7.05518 6.45872 8.05935 5.45456Z" fill="#D0D0D0" stroke="white" stroke-width="0.7" stroke-miterlimit="10" stroke-linecap="round" stroke-linejoin="round"/>
<path d="M11.4831 13.289V12.2633C11.4831 10.6954 10.7054 9.21249 9.39673 8.45293C9.33401 8.4167 9.27269 8.38325 9.20718 8.3498C8.58699 8.02786 7.89015 7.84668 7.15428 7.84668H5.51809C4.70418 7.84668 3.94044 8.06828 3.27286 8.45572C3.21154 8.49056 3.15161 8.52819 3.09168 8.56582C1.76907 9.42155 0.999756 10.9713 0.999756 12.6019V13.289H11.4831Z" fill="#D0D0D0" stroke="white" stroke-width="0.7" stroke-miterlimit="10" stroke-linecap="round" stroke-linejoin="round"/>
<path d="M14.5085 5.70204C15.6493 4.56119 15.6493 2.71151 14.5085 1.57066C13.3676 0.429814 11.518 0.429814 10.3771 1.57066C9.23627 2.71151 9.23627 4.56119 10.3771 5.70204C11.518 6.84289 13.3676 6.84289 14.5085 5.70204Z" fill="#D0D0D0" stroke="white" stroke-width="0.7" stroke-miterlimit="10" stroke-linecap="round" stroke-linejoin="round"/>
<path d="M17.685 13.639C17.8783 13.639 18.035 13.4823 18.035 13.289L15.4091 8.3498L15.5703 8.03916C15.57 8.03898 15.5697 8.03881 15.5693 8.03863C14.9015 7.69216 14.1499 7.49668 13.3562 7.49668H11.72C10.8419 7.49668 10.0184 7.73586 9.30044 8.15222C9.2329 8.19065 9.16797 8.23142 9.11025 8.26767L9.10747 8.26941L9.10745 8.26938L9.10346 8.27196C7.67032 9.1992 6.85166 10.8661 6.85166 12.6019V13.289C6.85166 13.4823 7.00836 13.639 7.20166 13.639H17.685Z" fill="#D0D0D0" stroke="white" stroke-width="0.7" stroke-miterlimit="10" stroke-linecap="round" stroke-linejoin="round"/>
<path d="M20.7102 5.70204C21.851 4.56119 21.851 2.71151 20.7102 1.57066C19.5693 0.429814 17.7196 0.429814 16.5788 1.57066C15.4379 2.71151 15.4379 4.56119 16.5788 5.70204C17.7196 6.84289 19.5693 6.84289 20.7102 5.70204Z" fill="#D0D0D0" stroke="white" stroke-width="0.7" stroke-miterlimit="10" stroke-linecap="round" stroke-linejoin="round"/>
<path d="M23.8864 13.639C24.0797 13.639 24.2364 13.4823 24.2364 13.289L21.6105 8.3498L21.7718 8.03916C21.7714 8.03898 21.7711 8.03881 21.7707 8.03863C21.1029 7.69216 20.3513 7.49668 19.5576 7.49668H17.9214C17.0433 7.49668 16.2198 7.73586 15.5019 8.15222C15.4343 8.19065 15.3694 8.23142 15.3117 8.26767L15.3089 8.26941L15.3089 8.26938L15.3049 8.27196C13.8717 9.1992 13.0531 10.8661 13.0531 12.6019V13.289C13.0531 13.4823 13.2098 13.639 13.4031 13.639H23.8864Z" fill="#D0D0D0" stroke="white" stroke-width="0.7" stroke-miterlimit="10" stroke-linecap="round" stroke-linejoin="round"/>
</svg>
