<svg width="19" height="14" viewBox="0 0 19 14" fill="none" xmlns="http://www.w3.org/2000/svg">
<path d="M8.30708 5.70204C9.44793 4.56119 9.44793 2.71151 8.30708 1.57066C7.16623 0.429814 5.31655 0.429814 4.1757 1.57066C3.03485 2.71151 3.03485 4.56119 4.1757 5.70204C5.31655 6.84289 7.16623 6.84289 8.30708 5.70204Z" fill="#D0D0D0" stroke="white" stroke-width="0.7" stroke-miterlimit="10" stroke-linecap="round" stroke-linejoin="round"/>
<path d="M11.4833 13.639C11.6766 13.639 11.8333 13.4823 11.8333 13.289L9.20743 8.3498L9.36868 8.03916C9.36834 8.03898 9.368 8.03881 9.36766 8.03863C8.69984 7.69216 7.94826 7.49668 7.15453 7.49668H5.51834C4.64021 7.49668 3.81669 7.73586 3.09878 8.15222C3.03124 8.19065 2.96631 8.23142 2.90859 8.26767L2.90581 8.26941L2.90579 8.26938L2.9018 8.27196C1.46866 9.1992 0.65 10.8661 0.65 12.6019V13.289C0.65 13.4823 0.8067 13.639 1 13.639H11.4833Z" fill="#D0D0D0" stroke="white" stroke-width="0.7" stroke-miterlimit="10" stroke-linecap="round" stroke-linejoin="round"/>
<path d="M14.5083 5.70204C15.6491 4.56119 15.6491 2.71151 14.5083 1.57066C13.3674 0.429814 11.5177 0.429814 10.3769 1.57066C9.23602 2.71151 9.23602 4.56119 10.3769 5.70204C11.5177 6.84289 13.3674 6.84289 14.5083 5.70204Z" fill="#D0D0D0" stroke="white" stroke-width="0.7" stroke-miterlimit="10" stroke-linecap="round" stroke-linejoin="round"/>
<path d="M17.6845 13.639C17.8778 13.639 18.0345 13.4823 18.0345 13.289L15.4086 8.3498L15.5699 8.03916C15.5695 8.03898 15.5692 8.03881 15.5688 8.03863C14.901 7.69216 14.1494 7.49668 13.3557 7.49668H11.7195C10.8414 7.49668 10.0179 7.73586 9.29995 8.15222C9.23241 8.19065 9.16749 8.23142 9.10976 8.26767L9.10698 8.26941L9.10696 8.26938L9.10297 8.27196C7.66983 9.1992 6.85117 10.8661 6.85117 12.6019V13.289C6.85117 13.4823 7.00787 13.639 7.20117 13.639H17.6845Z" fill="#D0D0D0" stroke="white" stroke-width="0.7" stroke-miterlimit="10" stroke-linecap="round" stroke-linejoin="round"/>
</svg>
