<svg width="31" height="14" viewBox="0 0 31 14" fill="none" xmlns="http://www.w3.org/2000/svg">
<path d="M8.05959 5.45456C9.06376 4.45039 9.06376 2.82231 8.05959 1.81815C7.05543 0.813981 5.42735 0.813981 4.42319 1.81815C3.41902 2.82231 3.41902 4.45039 4.42319 5.45456C5.42735 6.45872 7.05543 6.45872 8.05959 5.45456Z" fill="#D0D0D0" stroke="white" stroke-width="0.7" stroke-miterlimit="10" stroke-linecap="round" stroke-linejoin="round"/>
<path d="M11.4833 13.289V12.2633C11.4833 10.6954 10.7056 9.21249 9.39697 8.45293C9.33425 8.4167 9.27293 8.38325 9.20743 8.3498C8.58724 8.02786 7.89039 7.84668 7.15453 7.84668H5.51834C4.70442 7.84668 3.94068 8.06828 3.2731 8.45572C3.21178 8.49056 3.15185 8.52819 3.09193 8.56582C1.76932 9.42155 1 10.9713 1 12.6019V13.289H11.4833Z" fill="#D0D0D0" stroke="white" stroke-width="0.7" stroke-miterlimit="10" stroke-linecap="round" stroke-linejoin="round"/>
<path d="M14.5083 5.70204C15.6491 4.56119 15.6491 2.71151 14.5083 1.57066C13.3674 0.429814 11.5177 0.429814 10.3769 1.57066C9.23602 2.71151 9.23602 4.56119 10.3769 5.70204C11.5177 6.84289 13.3674 6.84289 14.5083 5.70204Z" fill="#D0D0D0" stroke="white" stroke-width="0.7" stroke-miterlimit="10" stroke-linecap="round" stroke-linejoin="round"/>
<path d="M17.6847 13.639C17.878 13.639 18.0347 13.4823 18.0347 13.289L15.4088 8.3498L15.5701 8.03916C15.5698 8.03898 15.5694 8.03881 15.5691 8.03863C14.9013 7.69216 14.1497 7.49668 13.3559 7.49668H11.7198C10.8416 7.49668 10.0181 7.73586 9.30019 8.15222C9.23265 8.19065 9.16773 8.23142 9.11 8.26767L9.10722 8.26941L9.10721 8.26938L9.10322 8.27196C7.67008 9.1992 6.85142 10.8661 6.85142 12.6019V13.289C6.85142 13.4823 7.00812 13.639 7.20142 13.639H17.6847Z" fill="#D0D0D0" stroke="white" stroke-width="0.7" stroke-miterlimit="10" stroke-linecap="round" stroke-linejoin="round"/>
<path d="M20.7104 5.70204C21.8512 4.56119 21.8512 2.71151 20.7104 1.57066C19.5696 0.429814 17.7199 0.429814 16.579 1.57066C15.4382 2.71151 15.4382 4.56119 16.579 5.70204C17.7199 6.84289 19.5696 6.84289 20.7104 5.70204Z" fill="#D0D0D0" stroke="white" stroke-width="0.7" stroke-miterlimit="10" stroke-linecap="round" stroke-linejoin="round"/>
<path d="M23.8866 13.639C24.0799 13.639 24.2366 13.4823 24.2366 13.289L21.6107 8.3498L21.772 8.03916C21.7717 8.03898 21.7713 8.03881 21.771 8.03863C21.1032 7.69216 20.3516 7.49668 19.5578 7.49668H17.9217C17.0435 7.49668 16.22 7.73586 15.5021 8.15222C15.4346 8.19065 15.3696 8.23142 15.3119 8.26767L15.3091 8.26941L15.3091 8.26938L15.3051 8.27196C13.872 9.1992 13.0533 10.8661 13.0533 12.6019V13.289C13.0533 13.4823 13.21 13.639 13.4033 13.639H23.8866Z" fill="#D0D0D0" stroke="white" stroke-width="0.7" stroke-miterlimit="10" stroke-linecap="round" stroke-linejoin="round"/>
<path d="M26.9116 5.70204C28.0524 4.56119 28.0524 2.71151 26.9116 1.57066C25.7707 0.429814 23.921 0.429814 22.7802 1.57066C21.6393 2.71151 21.6393 4.56119 22.7802 5.70204C23.921 6.84289 25.7707 6.84289 26.9116 5.70204Z" fill="#D0D0D0" stroke="white" stroke-width="0.7" stroke-miterlimit="10" stroke-linecap="round" stroke-linejoin="round"/>
<path d="M30.0878 13.639C30.2811 13.639 30.4378 13.4823 30.4378 13.289L27.8119 8.3498L27.9732 8.03916C27.9728 8.03898 27.9725 8.03881 27.9722 8.03863C27.3043 7.69216 26.5528 7.49668 25.759 7.49668H24.1228C23.2447 7.49668 22.4212 7.73586 21.7033 8.15222C21.6357 8.19065 21.5708 8.23142 21.5131 8.26767L21.5103 8.26941L21.5103 8.26938L21.5063 8.27196C20.0732 9.1992 19.2545 10.8661 19.2545 12.6019V13.289C19.2545 13.4823 19.4112 13.639 19.6045 13.639H30.0878Z" fill="#D0D0D0" stroke="white" stroke-width="0.7" stroke-miterlimit="10" stroke-linecap="round" stroke-linejoin="round"/>
</svg>
