<svg width="53" height="53" viewBox="0 0 53 53" fill="none" xmlns="http://www.w3.org/2000/svg">
<circle cx="26.5" cy="26.5" r="25.5" fill="white" stroke="#D6211E"/>
<path d="M29.9071 18.55L29.4673 20.7258L31.481 20.5636L33.6799 21.1886L35.6937 20.8645L37.9852 21.0034L38.1472 18.9433C37.908 18.465 37.4019 17.499 37.2908 17.462C37.1519 17.4157 35.3928 16.7444 35.1613 16.6981C34.9298 16.6518 33.3559 16.4204 32.8698 16.4435C32.3837 16.4667 31.5042 16.9528 31.0875 17.2306C30.7542 17.4528 30.1617 18.2028 29.9071 18.55Z" fill="#5CDE5A"/>
<path d="M16.3026 35.449C15.8557 36.6844 14.9777 39.1947 15.0408 39.3524H16.3026L23.4392 37.4598L29.4719 35.449L36.5297 30.7569L37.9491 26.1831L38.856 22.7134L37.4365 20.8208L35.7411 20.5054L33.9274 21.1362L32.9811 20.5054H31.3645L29.669 21.8065L28.6439 27.0112L26.1598 30.3232L19.8512 33.2015L16.3026 35.449Z" fill="#E33D3D"/>
<path d="M14.9998 40.0609C14.9998 36.0721 16.8158 34.6487 24.0798 31.0405" stroke="#1D1D1B" stroke-width="0.8" stroke-miterlimit="10" stroke-linecap="round" stroke-linejoin="round"/>
<path d="M29.5276 22.0205C29.5276 27.4328 27.7116 29.2368 24.0796 31.0409" stroke="#1D1D1B" stroke-width="0.8" stroke-miterlimit="10" stroke-linecap="round" stroke-linejoin="round"/>
<path d="M38.6079 22.0205C38.6079 38.2572 20.4478 36.4532 14.9998 40.0613" stroke="#1D1D1B" stroke-width="0.8" stroke-miterlimit="10" stroke-linecap="round" stroke-linejoin="round"/>
<path d="M34.0679 16.6082C34.0679 16.6082 34.0679 14.8041 35.8839 13" stroke="#1D1D1B" stroke-width="0.8" stroke-miterlimit="10" stroke-linecap="round" stroke-linejoin="round"/>
<path d="M29.5281 20.2166C29.5281 18.2225 31.1528 16.6084 33.1601 16.6084" stroke="#1D1D1B" stroke-width="0.8" stroke-miterlimit="10" stroke-linecap="round" stroke-linejoin="round"/>
<path d="M38.6081 20.2166C38.6081 18.2225 36.9834 16.6084 34.9761 16.6084" stroke="#1D1D1B" stroke-width="0.8" stroke-miterlimit="10" stroke-linecap="round" stroke-linejoin="round"/>
<path d="M33.1597 16.6084H34.9757" stroke="#1D1D1B" stroke-width="0.8" stroke-miterlimit="10" stroke-linecap="round" stroke-linejoin="round"/>
<path d="M29.5281 22.9217C29.5281 21.9247 30.4361 19.3136 34.0681 21.1176" stroke="#1D1D1B" stroke-width="0.8" stroke-miterlimit="10" stroke-linecap="round" stroke-linejoin="round"/>
<path d="M38.6079 22.9217C38.6079 21.9247 37.6999 19.3136 34.0679 21.1176" stroke="#1D1D1B" stroke-width="0.8" stroke-miterlimit="10" stroke-linecap="round" stroke-linejoin="round"/>
<path d="M29.5281 20.2168V22.0209" stroke="#1D1D1B" stroke-width="0.8" stroke-miterlimit="10" stroke-linecap="round" stroke-linejoin="round"/>
<path d="M38.6077 20.2168V22.0209" stroke="#1D1D1B" stroke-width="0.8" stroke-miterlimit="10" stroke-linecap="round" stroke-linejoin="round"/>
</svg>
