<svg width="19" height="16" viewBox="0 0 19 16" fill="none" xmlns="http://www.w3.org/2000/svg">
<path d="M12.8782 4.09293C13.1236 3.84757 13.5269 3.86198 13.7527 4.12541C14.8046 5.35121 15.3589 6.74323 15.3623 8.18396C15.3623 8.18862 15.3623 8.19349 15.3623 8.19816C15.3623 9.63645 14.8131 11.024 13.7669 12.2451C13.5411 12.5088 13.1378 12.5232 12.8922 12.2778C12.6724 12.058 12.6576 11.7055 12.8598 11.4693C13.7182 10.4665 14.1686 9.34502 14.1686 8.19796C14.1686 8.19431 14.1686 8.19065 14.1686 8.187C14.1657 7.03669 13.7103 5.91013 12.8458 4.90188C12.6434 4.66545 12.6582 4.31273 12.8782 4.09293Z" fill="#5A5A5A"/>
<path d="M15.4255 13.6112C18.449 10.2662 18.449 6.10514 15.4255 2.76016C15.212 2.52393 15.2197 2.16207 15.4449 1.9368C15.686 1.6957 16.0804 1.70463 16.3091 1.9573C17.999 3.82421 18.8884 5.96592 18.8884 8.18556C18.8884 10.4052 17.999 12.5471 16.3091 14.4138C16.0804 14.6665 15.686 14.6754 15.4449 14.4343C15.2199 14.2093 15.212 13.8474 15.4255 13.6112Z" fill="#5A5A5A"/>
<path d="M11.3194 0.931007V15.0684C11.3194 15.3494 11.1983 15.6206 10.9787 15.7965C10.8106 15.9313 10.6083 16.0001 10.4039 16.0001C10.2771 16.0001 10.1492 15.9735 10.0291 15.9197L4.42365 12.2324H0.915904C0.409955 12.2322 0 11.822 0 11.3163V5.21219C0 4.70645 0.409955 4.29629 0.915904 4.29629H4.3993L9.97549 0.107242C10.2736 -0.0504481 10.6268 -0.0338064 10.9107 0.154326C11.1694 0.325614 11.3194 0.620294 11.3194 0.931007Z" fill="#5A5A5A"/>
</svg>
