<svg width="35" height="33" viewBox="0 0 35 33" fill="none" xmlns="http://www.w3.org/2000/svg">
<path d="M26.3219 11.5542C21.8561 11.5542 18.2329 13.6263 18.2329 16.1855V18.2637C18.2329 20.8199 21.8531 22.3414 26.3219 22.3414C30.7877 22.3414 34.4109 20.8229 34.4109 18.2637V16.1855C34.4079 13.6263 30.7877 11.5542 26.3219 11.5542Z" fill="white" stroke="black" stroke-miterlimit="10" stroke-linecap="round" stroke-linejoin="round"/>
<path d="M26.3219 8.03613C21.8561 8.03613 18.2329 10.1083 18.2329 12.6674V14.7456C18.2329 17.3018 21.8531 18.8234 26.3219 18.8234C30.7877 18.8234 34.4109 17.3048 34.4109 14.7456V12.6674C34.4079 10.1083 30.7877 8.03613 26.3219 8.03613Z" fill="white" stroke="black" stroke-miterlimit="10" stroke-linecap="round" stroke-linejoin="round"/>
<path d="M34.4079 9.14938C34.4079 6.59323 30.7877 4.51807 26.3189 4.51807C21.8531 4.51807 18.2299 6.59021 18.2299 9.14938V11.2276C18.2299 13.7837 21.8501 15.3053 26.3189 15.3053C30.7847 15.3053 34.4079 13.7867 34.4079 11.2276V9.14938Z" fill="white" stroke="black" stroke-miterlimit="10" stroke-linecap="round" stroke-linejoin="round"/>
<path d="M26.322 10.2626C30.7894 10.2626 34.411 8.18912 34.411 5.63132C34.411 3.07351 30.7894 1 26.322 1C21.8545 1 18.233 3.07351 18.233 5.63132C18.233 8.18912 21.8545 10.2626 26.322 10.2626Z" fill="white" stroke="black" stroke-miterlimit="10" stroke-linecap="round" stroke-linejoin="round"/>
<path d="M18.233 8.39934C18.233 10.9555 21.8532 12.3379 26.322 12.3379C30.7908 12.3379 34.411 10.9555 34.411 8.39934V5.62842C34.411 8.18457 29.9301 9.2282 26.322 9.2282C23.1893 9.2282 18.233 8.18457 18.233 5.62842V8.39934Z" fill="white" stroke="black" stroke-miterlimit="10" stroke-linecap="round" stroke-linejoin="round"/>
<path d="M11.8231 31.9278C17.7182 31.9278 22.4971 27.1239 22.4971 21.198C22.4971 15.2721 17.7182 10.4683 11.8231 10.4683C5.92801 10.4683 1.14911 15.2721 1.14911 21.198C1.14911 27.1239 5.92801 31.9278 11.8231 31.9278Z" fill="#FFCDCC" stroke="black" stroke-miterlimit="10" stroke-linecap="round" stroke-linejoin="round"/>
<path d="M11.823 30.1612C6.90582 30.1612 2.90646 26.1409 2.90646 21.198C2.90646 16.2551 6.90582 12.2349 11.823 12.2349C16.7402 12.2349 20.7396 16.2551 20.7396 21.198C20.7396 26.1409 16.7402 30.1612 11.823 30.1612Z" stroke="black" stroke-miterlimit="10" stroke-linecap="round" stroke-linejoin="round"/>
<path d="M17.2247 20.4357H16.1023L16.9058 17.2927C16.9479 17.1052 16.9298 16.9509 16.8486 16.8299C16.7673 16.7089 16.6409 16.6333 16.4724 16.6C16.328 16.5667 16.1865 16.5788 16.0511 16.6393C15.9157 16.6998 15.8254 16.8238 15.7833 17.0114L14.9918 20.4357H13.3458L12.5663 17.1899C12.5062 16.969 12.4159 16.8087 12.2925 16.7149C12.1691 16.6212 12.0277 16.5728 11.8652 16.5728C11.6936 16.5728 11.5492 16.6212 11.4318 16.7149C11.3115 16.8087 11.2242 16.966 11.164 17.1899L10.3485 20.4357H8.66329L7.87184 17.0114C7.82971 16.8148 7.73943 16.6877 7.60401 16.6272C7.46859 16.5667 7.32716 16.5576 7.18271 16.603C7.01118 16.6363 6.88479 16.7149 6.80053 16.8329C6.71627 16.9539 6.69821 17.1082 6.74937 17.2957L7.52878 20.4387H6.41835C6.30701 20.4387 6.22876 20.475 6.18362 20.5476C6.13548 20.6202 6.11441 20.711 6.11441 20.8229C6.11441 20.9348 6.13848 21.0256 6.18362 21.0982C6.22876 21.1708 6.31001 21.2071 6.41835 21.2071H7.70633L8.71444 25.1971C8.7656 25.4179 8.85889 25.5813 8.99431 25.6781C9.12973 25.7779 9.27116 25.8263 9.41561 25.8263C9.56006 25.8263 9.70149 25.7809 9.83691 25.6841C9.97233 25.5904 10.0716 25.4331 10.1318 25.2092L11.1279 21.2071H12.5694L13.5263 25.1971C13.5775 25.4179 13.6677 25.5813 13.8002 25.6781C13.9326 25.7779 14.074 25.8263 14.2275 25.8263C14.3719 25.8263 14.5104 25.7809 14.6428 25.6841C14.7752 25.5904 14.8715 25.4331 14.9286 25.2092L15.9247 21.2071H17.2247C17.3361 21.2071 17.4143 21.1708 17.4595 21.0982C17.5076 21.0256 17.5287 20.9348 17.5287 20.8229C17.5287 20.711 17.5046 20.6202 17.4595 20.5476C17.4143 20.472 17.3361 20.4357 17.2247 20.4357ZM9.48182 23.8842L8.84384 21.2041H10.1589L9.48182 23.8842ZM11.3175 20.4357L11.8652 18.294L12.3768 20.4357H11.3175ZM14.1884 23.8842L13.5383 21.2041H14.8143L14.1884 23.8842Z" fill="black"/>
</svg>
