<svg width="36" height="26" viewBox="0 0 36 26" fill="none" xmlns="http://www.w3.org/2000/svg">
<path d="M32.5515 1H10.5207C9.09301 1 7.92297 2.0872 7.92297 3.41312V16.2675C7.92297 17.596 9.09301 18.6807 10.5207 18.6807H32.5489C33.9766 18.6807 35.1466 17.5934 35.1466 16.2675V3.41312C35.1492 2.0872 33.9792 1 32.5515 1Z" fill="white" stroke="black" stroke-miterlimit="10" stroke-linecap="round" stroke-linejoin="round"/>
<path d="M35.1492 9.92578H7.92297V14.1241H35.1492V9.92578Z" fill="black"/>
<path d="M25.6259 7.3833H3.59777C2.17006 7.3833 1.00003 8.4705 1.00003 9.79642V22.6508C1.00003 23.9793 2.17006 25.064 3.59777 25.064H25.6259C27.0536 25.064 28.2237 23.9768 28.2237 22.6508V9.79902C28.2263 8.4705 27.0563 7.3833 25.6259 7.3833Z" fill="#FFCDCC" stroke="black" stroke-miterlimit="10" stroke-linecap="round" stroke-linejoin="round"/>
<path d="M8.63285 20.4009H4.69418V21.2338H8.63285V20.4009Z" fill="black"/>
<path d="M13.8494 20.4009H9.91071V21.2338H13.8494V20.4009Z" fill="black"/>
<path d="M19.0685 20.4009H15.1298V21.2338H19.0685V20.4009Z" fill="black"/>
<path d="M24.285 20.4009H20.3463V21.2338H24.285V20.4009Z" fill="black"/>
<path d="M8.63285 13.46H4.69418V17.3469H8.63285V13.46Z" fill="white" stroke="black" stroke-miterlimit="10" stroke-linecap="round" stroke-linejoin="round"/>
</svg>
